<mxfile host="www.draw.io" modified="2019-11-21T17:27:23.855Z" agent="Mozilla/5.0 (Macintosh; Intel Mac OS X 10.14; rv:70.0) Gecko/20100101 Firefox/70.0" etag="sZLrvud3nwGJ5qwiR48M" version="12.2.8" type="github" pages="1">
  <diagram id="odPsRbAa1qNXG4oUqjUW" name="Page-1">
    <mxGraphModel dx="1186" dy="663" grid="1" gridSize="10" guides="1" tooltips="1" connect="1" arrows="1" fold="1" page="1" pageScale="1" pageWidth="850" pageHeight="1100" math="0" shadow="0">
      <root>
        <mxCell id="0"/>
        <mxCell id="1" parent="0"/>
        <mxCell id="gW1l_xMHw2OXpQuDHa4h-4" style="edgeStyle=orthogonalEdgeStyle;rounded=0;orthogonalLoop=1;jettySize=auto;html=1;" edge="1" parent="1" source="gW1l_xMHw2OXpQuDHa4h-1" target="gW1l_xMHw2OXpQuDHa4h-3">
          <mxGeometry relative="1" as="geometry"/>
        </mxCell>
        <mxCell id="gW1l_xMHw2OXpQuDHa4h-1" value="" style="outlineConnect=0;dashed=0;verticalLabelPosition=bottom;verticalAlign=top;align=center;html=1;shape=mxgraph.aws3.kinesis;fillColor=#F58534;gradientColor=none;" vertex="1" parent="1">
          <mxGeometry x="260" y="230" width="67.5" height="81" as="geometry"/>
        </mxCell>
        <mxCell id="gW1l_xMHw2OXpQuDHa4h-5" style="edgeStyle=orthogonalEdgeStyle;rounded=0;orthogonalLoop=1;jettySize=auto;html=1;" edge="1" parent="1" source="gW1l_xMHw2OXpQuDHa4h-2" target="gW1l_xMHw2OXpQuDHa4h-3">
          <mxGeometry relative="1" as="geometry"/>
        </mxCell>
        <mxCell id="gW1l_xMHw2OXpQuDHa4h-2" value="" style="outlineConnect=0;fontColor=#232F3E;gradientColor=#945DF2;gradientDirection=north;fillColor=#5A30B5;strokeColor=#ffffff;dashed=0;verticalLabelPosition=bottom;verticalAlign=top;align=center;html=1;fontSize=12;fontStyle=0;aspect=fixed;shape=mxgraph.aws4.resourceIcon;resIcon=mxgraph.aws4.redshift;" vertex="1" parent="1">
          <mxGeometry x="630" y="370" width="78" height="78" as="geometry"/>
        </mxCell>
        <mxCell id="gW1l_xMHw2OXpQuDHa4h-3" value="" style="verticalLabelPosition=bottom;html=1;verticalAlign=top;strokeWidth=1;align=center;outlineConnect=0;dashed=0;outlineConnect=0;shape=mxgraph.aws3d.redshift;fillColor=#ECECEC;strokeColor=#5E5E5E;aspect=fixed;" vertex="1" parent="1">
          <mxGeometry x="330" y="360" width="150" height="190" as="geometry"/>
        </mxCell>
      </root>
    </mxGraphModel>
  </diagram>
</mxfile>
